<?xml version="1.0" encoding="UTF-8"?>
<svg xmlns="http://www.w3.org/2000/svg" width="1722" height="414" viewBox="0 0 1722 414" role="img">
<title>Context Lifecycle</title>
<desc>Sources and transformations that construct model context.</desc>
<defs>
<marker id="arrow-runtime_verified" markerWidth="10" markerHeight="8" refX="9" refY="4" orient="auto" markerUnits="strokeWidth"><path d="M 0 0 L 10 4 L 0 8 z" fill="#2E7D32"/></marker>
<marker id="arrow-experimental_verified" markerWidth="10" markerHeight="8" refX="9" refY="4" orient="auto" markerUnits="strokeWidth"><path d="M 0 0 L 10 4 L 0 8 z" fill="#2E7D32"/></marker>
<marker id="arrow-static_only" markerWidth="10" markerHeight="8" refX="9" refY="4" orient="auto" markerUnits="strokeWidth"><path d="M 0 0 L 10 4 L 0 8 z" fill="#64748B"/></marker>
<marker id="arrow-inferred" markerWidth="10" markerHeight="8" refX="9" refY="4" orient="auto" markerUnits="strokeWidth"><path d="M 0 0 L 10 4 L 0 8 z" fill="#B45309"/></marker>
<marker id="arrow-conflicted" markerWidth="10" markerHeight="8" refX="9" refY="4" orient="auto" markerUnits="strokeWidth"><path d="M 0 0 L 10 4 L 0 8 z" fill="#B91C1C"/></marker>
<marker id="arrow-unknown" markerWidth="10" markerHeight="8" refX="9" refY="4" orient="auto" markerUnits="strokeWidth"><path d="M 0 0 L 10 4 L 0 8 z" fill="#64748B"/></marker>
</defs>
<style>
text { font-family: Inter, Arial, sans-serif; letter-spacing: 0; }
.diagram-title { font-size: 24px; font-weight: 700; fill: #111827; }
.diagram-subtitle { font-size: 13px; fill: #475569; }
.group-title { font-size: 13px; font-weight: 700; fill: #334155; }
.node-name { font-size: 13px; font-weight: 700; }
.node-type { font-size: 11px; }
.edge-label { font-size: 10px; fill: #334155; paint-order: stroke; stroke: #FFFFFF; stroke-width: 4px; stroke-linejoin: round; }
.legend-title { font-size: 11px; font-weight: 700; fill: #334155; }
.legend-label { font-size: 10px; fill: #475569; }
</style>
<rect width="100%" height="100%" fill="#FFFFFF"/>
<text x="36" y="39" class="diagram-title">Context Lifecycle</text>
<text x="36" y="64" class="diagram-subtitle">Sources and transformations that construct model context.</text>
<g class="group"><rect x="36.0" y="96.0" width="240.0" height="224.0" rx="6" fill="#FFFFFF" stroke="#CBD5E1"/><text x="58.0" y="118.0" class="group-title">startup/reload</text></g>
<g class="group"><rect x="318.0" y="96.0" width="240.0" height="140.0" rx="6" fill="#FFFFFF" stroke="#CBD5E1"/><text x="340.0" y="118.0" class="group-title">startup/lazy</text></g>
<g class="group"><rect x="600.0" y="96.0" width="240.0" height="224.0" rx="6" fill="#FFFFFF" stroke="#CBD5E1"/><text x="622.0" y="118.0" class="group-title">runtime</text></g>
<g class="group"><rect x="882.0" y="96.0" width="240.0" height="224.0" rx="6" fill="#FFFFFF" stroke="#CBD5E1"/><text x="904.0" y="118.0" class="group-title">per-turn</text></g>
<g class="group"><rect x="1164.0" y="96.0" width="240.0" height="140.0" rx="6" fill="#FFFFFF" stroke="#CBD5E1"/><text x="1186.0" y="118.0" class="group-title">tool-call</text></g>
<g class="group"><rect x="1446.0" y="96.0" width="240.0" height="140.0" rx="6" fill="#FFFFFF" stroke="#CBD5E1"/><text x="1468.0" y="118.0" class="group-title">threshold/overflow/manual</text></g>
<g class="edge" data-id="E-Compactor-Session" data-evidence="S-009,X-003"><title>E-Compactor-Session: S-009,X-003</title><path d="M 1468.0 181.0 C 1175.5 181.0, 1110.5 181.0, 818.0 181.0" fill="none" stroke="#2E7D32" stroke-width="2" marker-end="url(#arrow-experimental_verified)"/><text x="1143.0" y="176.0" class="edge-label" text-anchor="middle">summary boundary</text></g>
<g class="edge" data-id="E-Compactor-Store" data-evidence="S-008,S-009,X-003"><title>E-Compactor-Store: S-008,S-009,X-003</title><path d="M 1468.0 181.0 C 1175.5 181.0, 1110.5 265.0, 818.0 265.0" fill="none" stroke="#2E7D32" stroke-width="2" marker-end="url(#arrow-experimental_verified)"/><text x="1143.0" y="218.0" class="edge-label" text-anchor="middle">compaction entry</text></g>
<g class="edge" data-id="E-Context-Model" data-evidence="S-001,R-001"><title>E-Context-Model: S-001,R-001</title><path d="M 1100.0 181.0 C 1011.8 181.0, 992.2 265.0, 904.0 265.0" fill="none" stroke="#2E7D32" stroke-width="2" marker-end="url(#arrow-runtime_verified)"/><text x="1002.0" y="218.0" class="edge-label" text-anchor="middle">system/messages/tools</text></g>
<g class="edge" data-id="E-Project-Context" data-evidence="S-004"><title>E-Project-Context: S-004</title><path d="M 254.0 181.0 C 546.5 181.0, 611.5 181.0, 904.0 181.0" fill="none" stroke="#64748B" stroke-width="2" stroke-dasharray="7 5" marker-end="url(#arrow-static_only)"/><text x="579.0" y="176.0" class="edge-label" text-anchor="middle">project instructions</text></g>
<g class="edge" data-id="E-Tool-Context" data-evidence="S-001,R-002"><title>E-Tool-Context: S-001,R-002</title><path d="M 1186.0 181.0 C 1147.3 181.0, 1138.7 181.0, 1100.0 181.0" fill="none" stroke="#2E7D32" stroke-width="2" marker-end="url(#arrow-runtime_verified)"/><text x="1143.0" y="176.0" class="edge-label" text-anchor="middle">toolResult</text></g>
<g class="edge" data-id="E-Resource-Context" data-evidence="S-002,S-005"><title>E-Resource-Context: S-002,S-005</title><path d="M 254.0 265.0 C 546.5 265.0, 611.5 181.0, 904.0 181.0" fill="none" stroke="#64748B" stroke-width="2" stroke-dasharray="7 5" marker-end="url(#arrow-static_only)"/><text x="579.0" y="218.0" class="edge-label" text-anchor="middle">resources</text></g>
<g class="edge" data-id="E-Session-Context" data-evidence="S-008,R-004"><title>E-Session-Context: S-008,R-004</title><path d="M 818.0 181.0 C 856.7 181.0, 865.3 181.0, 904.0 181.0" fill="none" stroke="#2E7D32" stroke-width="2" marker-end="url(#arrow-runtime_verified)"/><text x="861.0" y="176.0" class="edge-label" text-anchor="middle">active branch</text></g>
<g class="edge" data-id="E-Session-Store" data-evidence="S-008,R-003"><title>E-Session-Store: S-008,R-003</title><path d="M 818.0 181.0 C 729.8 181.0, 710.2 265.0, 622.0 265.0" fill="none" stroke="#2E7D32" stroke-width="2" marker-end="url(#arrow-runtime_verified)"/><text x="720.0" y="218.0" class="edge-label" text-anchor="middle">append JSONL</text></g>
<g class="edge" data-id="E-Store-Session" data-evidence="S-008,R-004"><title>E-Store-Session: S-008,R-004</title><path d="M 818.0 265.0 C 729.8 265.0, 710.2 181.0, 622.0 181.0" fill="none" stroke="#2E7D32" stroke-width="2" marker-end="url(#arrow-runtime_verified)"/><text x="720.0" y="218.0" class="edge-label" text-anchor="middle">active branch</text></g>
<g class="edge" data-id="E-Skills-Context" data-evidence="S-002,S-004"><title>E-Skills-Context: S-002,S-004</title><path d="M 536.0 181.0 C 701.6 181.0, 738.4 181.0, 904.0 181.0" fill="none" stroke="#64748B" stroke-width="2" stroke-dasharray="7 5" marker-end="url(#arrow-static_only)"/><text x="720.0" y="176.0" class="edge-label" text-anchor="middle">metadata/invocation</text></g>
<g class="node" data-id="N-Compactor" data-evidence="S-009,X-003"><title>N-Compactor: S-009,X-003</title><rect x="1468.0" y="148.0" width="196" height="66" rx="6" fill="#E8F5E9" stroke="#2E7D32" stroke-width="2"/><text x="1482.0" y="175.0" class="node-name" fill="#14261A">Coding Agent compaction</text><text x="1482.0" y="197.0" class="node-type" fill="#14261A">Compactor</text></g>
<g class="node" data-id="N-Context" data-evidence="S-001,S-002,S-004,R-001"><title>N-Context: S-001,S-002,S-004,R-001</title><rect x="904.0" y="148.0" width="196" height="66" rx="6" fill="#E8F5E9" stroke="#2E7D32" stroke-width="2"/><text x="918.0" y="175.0" class="node-name" fill="#14261A">Context assembly</text><text x="918.0" y="197.0" class="node-type" fill="#14261A">ContextBuilder</text></g>
<g class="node" data-id="N-ResourceLoader" data-evidence="S-005,S-006"><title>N-ResourceLoader: S-005,S-006</title><rect x="58.0" y="232.0" width="196" height="66" rx="6" fill="#F8FAFC" stroke="#64748B" stroke-width="2"/><text x="72.0" y="259.0" class="node-name" fill="#1E293B">DefaultResourceLoader</text><text x="72.0" y="281.0" class="node-type" fill="#1E293B">ContextTransformer</text></g>
<g class="node" data-id="N-ModelCall" data-evidence="S-001,S-012,R-001,R-002"><title>N-ModelCall: S-001,S-012,R-001,R-002</title><rect x="904.0" y="232.0" width="196" height="66" rx="6" fill="#E8F5E9" stroke="#2E7D32" stroke-width="2"/><text x="918.0" y="259.0" class="node-name" fill="#14261A">Provider request</text><text x="918.0" y="281.0" class="node-type" fill="#14261A">ModelCall</text></g>
<g class="node" data-id="N-ProjectContext" data-evidence="S-004,D-002"><title>N-ProjectContext: S-004,D-002</title><rect x="58.0" y="148.0" width="196" height="66" rx="6" fill="#F8FAFC" stroke="#64748B" stroke-width="2"/><text x="72.0" y="175.0" class="node-name" fill="#1E293B">AGENTS/CLAUDE + SYSTEM</text><text x="72.0" y="197.0" class="node-type" fill="#1E293B">PromptSource</text></g>
<g class="node" data-id="N-Session" data-evidence="S-008,R-003,R-004"><title>N-Session: S-008,R-003,R-004</title><rect x="622.0" y="148.0" width="196" height="66" rx="6" fill="#E8F5E9" stroke="#2E7D32" stroke-width="2"/><text x="636.0" y="175.0" class="node-name" fill="#14261A">Live active session</text><text x="636.0" y="197.0" class="node-type" fill="#14261A">Session</text></g>
<g class="node" data-id="N-SessionStore" data-evidence="S-008,R-003,R-004"><title>N-SessionStore: S-008,R-003,R-004</title><rect x="622.0" y="232.0" width="196" height="66" rx="6" fill="#E8F5E9" stroke="#2E7D32" stroke-width="2"/><text x="636.0" y="259.0" class="node-name" fill="#14261A">Session JSONL v3</text><text x="636.0" y="281.0" class="node-type" fill="#14261A">SessionStore</text></g>
<g class="node" data-id="N-Skills" data-evidence="S-002,S-004"><title>N-Skills: S-002,S-004</title><rect x="340.0" y="148.0" width="196" height="66" rx="6" fill="#F8FAFC" stroke="#64748B" stroke-width="2"/><text x="354.0" y="175.0" class="node-name" fill="#1E293B">Skills</text><text x="354.0" y="197.0" class="node-type" fill="#1E293B">Skill</text></g>
<g class="node" data-id="N-ReadTool" data-evidence="R-002,S-003"><title>N-ReadTool: R-002,S-003</title><rect x="1186.0" y="148.0" width="196" height="66" rx="6" fill="#E8F5E9" stroke="#2E7D32" stroke-width="2"/><text x="1200.0" y="175.0" class="node-name" fill="#14261A">read tool</text><text x="1200.0" y="197.0" class="node-type" fill="#14261A">Tool</text></g>
<text x="36" y="356.0" class="legend-title">Evidence state</text>
<line x1="36.0" y1="376.0" x2="64.0" y2="376.0" stroke="#2E7D32" stroke-width="2"/><text x="72.0" y="380.0" class="legend-label">Observed</text>
<line x1="196.0" y1="376.0" x2="224.0" y2="376.0" stroke="#64748B" stroke-width="2" stroke-dasharray="7 5"/><text x="232.0" y="380.0" class="legend-label">Static only</text>
<line x1="356.0" y1="376.0" x2="384.0" y2="376.0" stroke="#B45309" stroke-width="2" stroke-dasharray="2 5"/><text x="392.0" y="380.0" class="legend-label">Inferred</text>
<line x1="516.0" y1="376.0" x2="544.0" y2="376.0" stroke="#B91C1C" stroke-width="2"/><text x="552.0" y="380.0" class="legend-label">Conflicted</text>
<line x1="676.0" y1="376.0" x2="704.0" y2="376.0" stroke="#64748B" stroke-width="2" stroke-dasharray="3 5"/><text x="712.0" y="380.0" class="legend-label">Unknown</text>
</svg>
