<?xml version="1.0" encoding="UTF-8"?>
<svg xmlns="http://www.w3.org/2000/svg" width="1596" height="1604" viewBox="0 0 1596 1604" role="img">
<title>Layered Architecture</title>
<desc>Responsibilities grouped by their architectural layer.</desc>
<defs>
<marker id="arrow-runtime_verified" markerWidth="10" markerHeight="8" refX="9" refY="4" orient="auto" markerUnits="strokeWidth"><path d="M 0 0 L 10 4 L 0 8 z" fill="#2E7D32"/></marker>
<marker id="arrow-experimental_verified" markerWidth="10" markerHeight="8" refX="9" refY="4" orient="auto" markerUnits="strokeWidth"><path d="M 0 0 L 10 4 L 0 8 z" fill="#2E7D32"/></marker>
<marker id="arrow-static_only" markerWidth="10" markerHeight="8" refX="9" refY="4" orient="auto" markerUnits="strokeWidth"><path d="M 0 0 L 10 4 L 0 8 z" fill="#64748B"/></marker>
<marker id="arrow-inferred" markerWidth="10" markerHeight="8" refX="9" refY="4" orient="auto" markerUnits="strokeWidth"><path d="M 0 0 L 10 4 L 0 8 z" fill="#B45309"/></marker>
<marker id="arrow-conflicted" markerWidth="10" markerHeight="8" refX="9" refY="4" orient="auto" markerUnits="strokeWidth"><path d="M 0 0 L 10 4 L 0 8 z" fill="#B91C1C"/></marker>
<marker id="arrow-unknown" markerWidth="10" markerHeight="8" refX="9" refY="4" orient="auto" markerUnits="strokeWidth"><path d="M 0 0 L 10 4 L 0 8 z" fill="#64748B"/></marker>
</defs>
<style>
text { font-family: Inter, Arial, sans-serif; letter-spacing: 0; }
.diagram-title { font-size: 24px; font-weight: 700; fill: #111827; }
.diagram-subtitle { font-size: 13px; fill: #475569; }
.group-title { font-size: 13px; font-weight: 700; fill: #334155; }
.node-name { font-size: 13px; font-weight: 700; }
.node-type { font-size: 11px; }
.edge-label { font-size: 10px; fill: #334155; paint-order: stroke; stroke: #FFFFFF; stroke-width: 4px; stroke-linejoin: round; }
.legend-title { font-size: 11px; font-weight: 700; fill: #334155; }
.legend-label { font-size: 10px; fill: #475569; }
</style>
<rect width="100%" height="100%" fill="#FFFFFF"/>
<text x="36" y="39" class="diagram-title">Layered Architecture</text>
<text x="36" y="64" class="diagram-subtitle">Responsibilities grouped by their architectural layer.</text>
<g class="group"><rect x="36.0" y="96.0" width="454.0" height="140.0" rx="6" fill="#FFFFFF" stroke="#CBD5E1"/><text x="58.0" y="118.0" class="group-title">interface</text></g>
<g class="group"><rect x="36.0" y="278.0" width="1524.0" height="140.0" rx="6" fill="#FFFFFF" stroke="#CBD5E1"/><text x="58.0" y="300.0" class="group-title">orchestration</text></g>
<g class="group"><rect x="36.0" y="460.0" width="668.0" height="140.0" rx="6" fill="#FFFFFF" stroke="#CBD5E1"/><text x="58.0" y="482.0" class="group-title">context-capability</text></g>
<g class="group"><rect x="36.0" y="642.0" width="668.0" height="140.0" rx="6" fill="#FFFFFF" stroke="#CBD5E1"/><text x="58.0" y="664.0" class="group-title">governance</text></g>
<g class="group"><rect x="36.0" y="824.0" width="882.0" height="140.0" rx="6" fill="#FFFFFF" stroke="#CBD5E1"/><text x="58.0" y="846.0" class="group-title">execution</text></g>
<g class="group"><rect x="36.0" y="1006.0" width="454.0" height="140.0" rx="6" fill="#FFFFFF" stroke="#CBD5E1"/><text x="58.0" y="1028.0" class="group-title">state</text></g>
<g class="group"><rect x="36.0" y="1188.0" width="454.0" height="140.0" rx="6" fill="#FFFFFF" stroke="#CBD5E1"/><text x="58.0" y="1210.0" class="group-title">infrastructure</text></g>
<g class="group"><rect x="36.0" y="1370.0" width="240.0" height="140.0" rx="6" fill="#FFFFFF" stroke="#CBD5E1"/><text x="58.0" y="1392.0" class="group-title">observability</text></g>
<g class="edge" data-id="E-AgentHarness-Loop" data-evidence="S-011,X-002"><title>E-AgentHarness-Loop: S-011,X-002</title><path d="M 584.0 396.0 C 584.0 430.0, 798.0 296.0, 798.0 330.0" fill="none" stroke="#2E7D32" stroke-width="2" marker-end="url(#arrow-experimental_verified)"/><text x="691.0" y="358.0" class="edge-label" text-anchor="middle">direct loop</text></g>
<g class="edge" data-id="E-AgentSession-Loop" data-evidence="S-002,R-001,R-002"><title>E-AgentSession-Loop: S-002,R-001,R-002</title><path d="M 370.0 396.0 C 370.0 430.0, 798.0 296.0, 798.0 330.0" fill="none" stroke="#2E7D32" stroke-width="2" marker-end="url(#arrow-runtime_verified)"/><text x="584.0" y="358.0" class="edge-label" text-anchor="middle">prompt/continue</text></g>
<g class="edge" data-id="E-Bash-Workspace" data-evidence="S-007,D-002"><title>E-Bash-Workspace: S-007,D-002</title><path d="M 584.0 942.0 C 584.0 976.0, 798.0 842.0, 798.0 876.0" fill="none" stroke="#64748B" stroke-width="2" stroke-dasharray="7 5" marker-end="url(#arrow-static_only)"/><text x="691.0" y="904.0" class="edge-label" text-anchor="middle">local shell</text></g>
<g class="edge" data-id="E-CLI-Main" data-evidence="S-013,R-001"><title>E-CLI-Main: S-013,R-001</title><path d="M 156.0 214.0 C 156.0 248.0, 370.0 114.0, 370.0 148.0" fill="none" stroke="#2E7D32" stroke-width="2" marker-end="url(#arrow-runtime_verified)"/><text x="263.0" y="176.0" class="edge-label" text-anchor="middle">invoke</text></g>
<g class="edge" data-id="E-Compactor-Store" data-evidence="S-008,S-009,X-003"><title>E-Compactor-Store: S-008,S-009,X-003</title><path d="M 1012.0 396.0 C 1012.0 693.9, 370.0 760.1, 370.0 1058.0" fill="none" stroke="#2E7D32" stroke-width="2" marker-end="url(#arrow-experimental_verified)"/><text x="691.0" y="722.0" class="edge-label" text-anchor="middle">compaction entry</text></g>
<g class="edge" data-id="E-Context-Model" data-evidence="S-001,R-001"><title>E-Context-Model: S-001,R-001</title><path d="M 156.0 578.0 C 156.0 875.9, 370.0 942.1, 370.0 1240.0" fill="none" stroke="#2E7D32" stroke-width="2" marker-end="url(#arrow-runtime_verified)"/><text x="263.0" y="904.0" class="edge-label" text-anchor="middle">system/messages/tools</text></g>
<g class="edge" data-id="E-Sandbox-Bash" data-evidence="D-007"><title>E-Sandbox-Bash: D-007</title><path d="M 370.0 942.0 C 370.0 976.0, 584.0 842.0, 584.0 876.0" fill="none" stroke="#64748B" stroke-width="2" stroke-dasharray="7 5" marker-end="url(#arrow-static_only)"/><text x="477.0" y="904.0" class="edge-label" text-anchor="middle">optional routed backend</text></g>
<g class="edge" data-id="E-Hook-Gate" data-evidence="S-003,S-017,X-001"><title>E-Hook-Gate: S-003,S-017,X-001</title><path d="M 156.0 760.0 C 156.0 794.0, 584.0 660.0, 584.0 694.0" fill="none" stroke="#2E7D32" stroke-width="2" marker-end="url(#arrow-experimental_verified)"/><text x="370.0" y="722.0" class="edge-label" text-anchor="middle">tool_call policy</text></g>
<g class="edge" data-id="E-Loop-Context" data-evidence="S-001,R-001"><title>E-Loop-Context: S-001,R-001</title><path d="M 798.0 396.0 C 798.0 448.2, 156.0 459.8, 156.0 512.0" fill="none" stroke="#2E7D32" stroke-width="2" marker-end="url(#arrow-runtime_verified)"/><text x="477.0" y="449.0" class="edge-label" text-anchor="middle">convert before request</text></g>
<g class="edge" data-id="E-Loop-Tool" data-evidence="S-001,R-002"><title>E-Loop-Tool: S-001,R-002</title><path d="M 798.0 396.0 C 798.0 612.0, 156.0 660.0, 156.0 876.0" fill="none" stroke="#2E7D32" stroke-width="2" marker-end="url(#arrow-runtime_verified)"/><text x="477.0" y="631.0" class="edge-label" text-anchor="middle">dispatch</text></g>
<g class="edge" data-id="E-Main-Runtime" data-evidence="S-013,R-001"><title>E-Main-Runtime: S-013,R-001</title><path d="M 370.0 214.0 C 370.0 266.2, 156.0 277.8, 156.0 330.0" fill="none" stroke="#2E7D32" stroke-width="2" marker-end="url(#arrow-runtime_verified)"/><text x="263.0" y="267.0" class="edge-label" text-anchor="middle">create runtime</text></g>
<g class="edge" data-id="E-Models-Call" data-evidence="S-012,R-001"><title>E-Models-Call: S-012,R-001</title><path d="M 156.0 1306.0 C 156.0 1340.0, 370.0 1206.0, 370.0 1240.0" fill="none" stroke="#2E7D32" stroke-width="2" marker-end="url(#arrow-runtime_verified)"/><text x="263.0" y="1268.0" class="edge-label" text-anchor="middle">auth + dispatch</text></g>
<g class="edge" data-id="E-Gate-Tool" data-evidence="S-003,S-017"><title>E-Gate-Tool: S-003,S-017</title><path d="M 584.0 760.0 C 584.0 812.2, 156.0 823.8, 156.0 876.0" fill="none" stroke="#64748B" stroke-width="2" stroke-dasharray="7 5" marker-end="url(#arrow-static_only)"/><text x="370.0" y="813.0" class="edge-label" text-anchor="middle">allow/block</text></g>
<g class="edge" data-id="E-Trust-Resource" data-evidence="D-002,S-005,S-006"><title>E-Trust-Resource: D-002,S-005,S-006</title><path d="M 370.0 760.0 C 370.0 871.6, 370.0 400.4, 370.0 512.0" fill="none" stroke="#64748B" stroke-width="2" stroke-dasharray="7 5" marker-end="url(#arrow-static_only)"/><text x="370.0" y="631.0" class="edge-label" text-anchor="middle">load project resources</text></g>
<g class="edge" data-id="E-Resource-Context" data-evidence="S-002,S-005"><title>E-Resource-Context: S-002,S-005</title><path d="M 370.0 578.0 C 370.0 612.0, 156.0 478.0, 156.0 512.0" fill="none" stroke="#64748B" stroke-width="2" stroke-dasharray="7 5" marker-end="url(#arrow-static_only)"/><text x="263.0" y="540.0" class="edge-label" text-anchor="middle">resources</text></g>
<g class="edge" data-id="E-Session-Store" data-evidence="S-008,R-003"><title>E-Session-Store: S-008,R-003</title><path d="M 156.0 1124.0 C 156.0 1158.0, 370.0 1024.0, 370.0 1058.0" fill="none" stroke="#2E7D32" stroke-width="2" marker-end="url(#arrow-runtime_verified)"/><text x="263.0" y="1086.0" class="edge-label" text-anchor="middle">append JSONL</text></g>
<g class="edge" data-id="E-Runtime-Session" data-evidence="S-014,R-004"><title>E-Runtime-Session: S-014,R-004</title><path d="M 156.0 396.0 C 156.0 430.0, 370.0 296.0, 370.0 330.0" fill="none" stroke="#2E7D32" stroke-width="2" marker-end="url(#arrow-runtime_verified)"/><text x="263.0" y="358.0" class="edge-label" text-anchor="middle">own/rebind</text></g>
<g class="edge" data-id="E-Registry-Tool" data-evidence="S-003,R-002"><title>E-Registry-Tool: S-003,R-002</title><path d="M 584.0 578.0 C 584.0 712.1, 156.0 741.9, 156.0 876.0" fill="none" stroke="#2E7D32" stroke-width="2" marker-end="url(#arrow-runtime_verified)"/><text x="370.0" y="722.0" class="edge-label" text-anchor="middle">active tool</text></g>
<g class="node" data-id="N-AgentSession" data-evidence="S-002,S-003,R-001,X-003"><title>N-AgentSession: S-002,S-003,R-001,X-003</title><rect x="272.0" y="330.0" width="196" height="66" rx="6" fill="#E8F5E9" stroke="#2E7D32" stroke-width="2"/><text x="286.0" y="357.0" class="node-name" fill="#14261A">Coding Agent AgentSession</text><text x="286.0" y="379.0" class="node-type" fill="#14261A">AgentLoop</text></g>
<g class="node" data-id="N-AgentHarness" data-evidence="D-003,S-011,X-002"><title>N-AgentHarness: D-003,S-011,X-002</title><rect x="486.0" y="330.0" width="196" height="66" rx="6" fill="#E8F5E9" stroke="#2E7D32" stroke-width="2"/><text x="500.0" y="357.0" class="node-name" fill="#14261A">New AgentHarness</text><text x="500.0" y="379.0" class="node-type" fill="#14261A">AgentLoop</text></g>
<g class="node" data-id="N-LowLoop" data-evidence="S-001,R-001,R-002,X-001"><title>N-LowLoop: S-001,R-001,R-002,X-001</title><rect x="700.0" y="330.0" width="196" height="66" rx="6" fill="#E8F5E9" stroke="#2E7D32" stroke-width="2"/><text x="714.0" y="357.0" class="node-name" fill="#14261A">runAgentLoop</text><text x="714.0" y="379.0" class="node-type" fill="#14261A">AgentLoop</text></g>
<g class="node" data-id="N-Compactor" data-evidence="S-009,X-003"><title>N-Compactor: S-009,X-003</title><rect x="914.0" y="330.0" width="196" height="66" rx="6" fill="#E8F5E9" stroke="#2E7D32" stroke-width="2"/><text x="928.0" y="357.0" class="node-name" fill="#14261A">Coding Agent compaction</text><text x="928.0" y="379.0" class="node-type" fill="#14261A">Compactor</text></g>
<g class="node" data-id="N-Context" data-evidence="S-001,S-002,S-004,R-001"><title>N-Context: S-001,S-002,S-004,R-001</title><rect x="58.0" y="512.0" width="196" height="66" rx="6" fill="#E8F5E9" stroke="#2E7D32" stroke-width="2"/><text x="72.0" y="539.0" class="node-name" fill="#14261A">Context assembly</text><text x="72.0" y="561.0" class="node-type" fill="#14261A">ContextBuilder</text></g>
<g class="node" data-id="N-ResourceLoader" data-evidence="S-005,S-006"><title>N-ResourceLoader: S-005,S-006</title><rect x="272.0" y="512.0" width="196" height="66" rx="6" fill="#F8FAFC" stroke="#64748B" stroke-width="2"/><text x="286.0" y="539.0" class="node-name" fill="#1E293B">DefaultResourceLoader</text><text x="286.0" y="561.0" class="node-type" fill="#1E293B">ContextTransformer</text></g>
<g class="node" data-id="N-Main" data-evidence="S-013,R-001"><title>N-Main: S-013,R-001</title><rect x="272.0" y="148.0" width="196" height="66" rx="6" fill="#E8F5E9" stroke="#2E7D32" stroke-width="2"/><text x="286.0" y="175.0" class="node-name" fill="#14261A">main()</text><text x="286.0" y="197.0" class="node-type" fill="#14261A">Entrypoint</text></g>
<g class="node" data-id="N-Bash" data-evidence="S-007,D-002"><title>N-Bash: S-007,D-002</title><rect x="486.0" y="876.0" width="196" height="66" rx="6" fill="#F8FAFC" stroke="#64748B" stroke-width="2"/><text x="500.0" y="903.0" class="node-name" fill="#1E293B">Local bash backend</text><text x="500.0" y="925.0" class="node-type" fill="#1E293B">ExecutionBackend</text></g>
<g class="node" data-id="N-Exit" data-evidence="S-001,R-001,R-002"><title>N-Exit: S-001,R-001,R-002</title><rect x="1342.0" y="330.0" width="196" height="66" rx="6" fill="#E8F5E9" stroke="#2E7D32" stroke-width="2"/><text x="1356.0" y="357.0" class="node-name" fill="#14261A">agent_end / agent_settled</text><text x="1356.0" y="379.0" class="node-type" fill="#14261A">ExitCondition</text></g>
<g class="node" data-id="N-Hooks" data-evidence="S-002,S-003,S-017,X-001"><title>N-Hooks: S-002,S-003,S-017,X-001</title><rect x="58.0" y="694.0" width="196" height="66" rx="6" fill="#E8F5E9" stroke="#2E7D32" stroke-width="2"/><text x="72.0" y="721.0" class="node-name" fill="#14261A">Extension hooks</text><text x="72.0" y="743.0" class="node-type" fill="#14261A">Hook</text></g>
<g class="node" data-id="N-CLI" data-evidence="S-013,R-001"><title>N-CLI: S-013,R-001</title><rect x="58.0" y="148.0" width="196" height="66" rx="6" fill="#E8F5E9" stroke="#2E7D32" stroke-width="2"/><text x="72.0" y="175.0" class="node-name" fill="#14261A">pi CLI / JSON / RPC / TUI</text><text x="72.0" y="197.0" class="node-type" fill="#14261A">Interface</text></g>
<g class="node" data-id="N-Models" data-evidence="S-012,R-005,R-001"><title>N-Models: S-012,R-005,R-001</title><rect x="58.0" y="1240.0" width="196" height="66" rx="6" fill="#E8F5E9" stroke="#2E7D32" stroke-width="2"/><text x="72.0" y="1267.0" class="node-name" fill="#14261A">pi-ai Models / ModelRegistry</text><text x="72.0" y="1289.0" class="node-type" fill="#14261A">ModelAdapter</text></g>
<g class="node" data-id="N-ModelCall" data-evidence="S-001,S-012,R-001,R-002"><title>N-ModelCall: S-001,S-012,R-001,R-002</title><rect x="272.0" y="1240.0" width="196" height="66" rx="6" fill="#E8F5E9" stroke="#2E7D32" stroke-width="2"/><text x="286.0" y="1267.0" class="node-name" fill="#14261A">Provider request</text><text x="286.0" y="1289.0" class="node-type" fill="#14261A">ModelCall</text></g>
<g class="node" data-id="N-OptionalGate" data-evidence="D-004,S-017"><title>N-OptionalGate: D-004,S-017</title><rect x="486.0" y="694.0" width="196" height="66" rx="6" fill="#F8FAFC" stroke="#64748B" stroke-width="2"/><text x="500.0" y="721.0" class="node-name" fill="#1E293B">Optional extension gate</text><text x="500.0" y="743.0" class="node-type" fill="#1E293B">PermissionGate</text></g>
<g class="node" data-id="N-ProjectTrust" data-evidence="D-002,S-005,S-006"><title>N-ProjectTrust: D-002,S-005,S-006</title><rect x="272.0" y="694.0" width="196" height="66" rx="6" fill="#F8FAFC" stroke="#64748B" stroke-width="2"/><text x="286.0" y="721.0" class="node-name" fill="#1E293B">Project trust</text><text x="286.0" y="743.0" class="node-type" fill="#1E293B">PolicyRule</text></g>
<g class="node" data-id="N-Retry" data-evidence="S-009,S-010,X-003"><title>N-Retry: S-009,S-010,X-003</title><rect x="1128.0" y="330.0" width="196" height="66" rx="6" fill="#E8F5E9" stroke="#2E7D32" stroke-width="2"/><text x="1142.0" y="357.0" class="node-name" fill="#14261A">Retry / overflow recovery</text><text x="1142.0" y="379.0" class="node-type" fill="#14261A">RecoveryPolicy</text></g>
<g class="node" data-id="N-SessionRuntime" data-evidence="S-014,R-004"><title>N-SessionRuntime: S-014,R-004</title><rect x="58.0" y="330.0" width="196" height="66" rx="6" fill="#E8F5E9" stroke="#2E7D32" stroke-width="2"/><text x="72.0" y="357.0" class="node-name" fill="#14261A">AgentSessionRuntime</text><text x="72.0" y="379.0" class="node-type" fill="#14261A">Router</text></g>
<g class="node" data-id="N-ExternalSandbox" data-evidence="D-007"><title>N-ExternalSandbox: D-007</title><rect x="272.0" y="876.0" width="196" height="66" rx="6" fill="#F8FAFC" stroke="#64748B" stroke-width="2"/><text x="286.0" y="903.0" class="node-name" fill="#1E293B">External container / VM</text><text x="286.0" y="925.0" class="node-type" fill="#1E293B">Sandbox</text></g>
<g class="node" data-id="N-Session" data-evidence="S-008,R-003,R-004"><title>N-Session: S-008,R-003,R-004</title><rect x="58.0" y="1058.0" width="196" height="66" rx="6" fill="#E8F5E9" stroke="#2E7D32" stroke-width="2"/><text x="72.0" y="1085.0" class="node-name" fill="#14261A">Live active session</text><text x="72.0" y="1107.0" class="node-type" fill="#14261A">Session</text></g>
<g class="node" data-id="N-SessionStore" data-evidence="S-008,R-003,R-004"><title>N-SessionStore: S-008,R-003,R-004</title><rect x="272.0" y="1058.0" width="196" height="66" rx="6" fill="#E8F5E9" stroke="#2E7D32" stroke-width="2"/><text x="286.0" y="1085.0" class="node-name" fill="#14261A">Session JSONL v3</text><text x="286.0" y="1107.0" class="node-type" fill="#14261A">SessionStore</text></g>
<g class="node" data-id="N-Events" data-evidence="D-005,R-001,R-002"><title>N-Events: D-005,R-001,R-002</title><rect x="58.0" y="1422.0" width="196" height="66" rx="6" fill="#E8F5E9" stroke="#2E7D32" stroke-width="2"/><text x="72.0" y="1449.0" class="node-name" fill="#14261A">Agent events + JSON/RPC</text><text x="72.0" y="1471.0" class="node-type" fill="#14261A">TelemetrySink</text></g>
<g class="node" data-id="N-ReadTool" data-evidence="R-002,S-003"><title>N-ReadTool: R-002,S-003</title><rect x="58.0" y="876.0" width="196" height="66" rx="6" fill="#E8F5E9" stroke="#2E7D32" stroke-width="2"/><text x="72.0" y="903.0" class="node-name" fill="#14261A">read tool</text><text x="72.0" y="925.0" class="node-type" fill="#14261A">Tool</text></g>
<g class="node" data-id="N-ToolRegistry" data-evidence="S-003,R-002"><title>N-ToolRegistry: S-003,R-002</title><rect x="486.0" y="512.0" width="196" height="66" rx="6" fill="#E8F5E9" stroke="#2E7D32" stroke-width="2"/><text x="500.0" y="539.0" class="node-name" fill="#14261A">Unified tool registry</text><text x="500.0" y="561.0" class="node-type" fill="#14261A">ToolRegistry</text></g>
<g class="node" data-id="N-Workspace" data-evidence="S-007,R-002"><title>N-Workspace: S-007,R-002</title><rect x="700.0" y="876.0" width="196" height="66" rx="6" fill="#E8F5E9" stroke="#2E7D32" stroke-width="2"/><text x="714.0" y="903.0" class="node-name" fill="#14261A">cwd workspace</text><text x="714.0" y="925.0" class="node-type" fill="#14261A">Workspace</text></g>
<text x="36" y="1546.0" class="legend-title">Evidence state</text>
<line x1="36.0" y1="1566.0" x2="64.0" y2="1566.0" stroke="#2E7D32" stroke-width="2"/><text x="72.0" y="1570.0" class="legend-label">Observed</text>
<line x1="196.0" y1="1566.0" x2="224.0" y2="1566.0" stroke="#64748B" stroke-width="2" stroke-dasharray="7 5"/><text x="232.0" y="1570.0" class="legend-label">Static only</text>
<line x1="356.0" y1="1566.0" x2="384.0" y2="1566.0" stroke="#B45309" stroke-width="2" stroke-dasharray="2 5"/><text x="392.0" y="1570.0" class="legend-label">Inferred</text>
<line x1="516.0" y1="1566.0" x2="544.0" y2="1566.0" stroke="#B91C1C" stroke-width="2"/><text x="552.0" y="1570.0" class="legend-label">Conflicted</text>
<line x1="676.0" y1="1566.0" x2="704.0" y2="1566.0" stroke="#64748B" stroke-width="2" stroke-dasharray="3 5"/><text x="712.0" y="1570.0" class="legend-label">Unknown</text>
</svg>
