<?xml version="1.0" encoding="UTF-8"?>
<svg xmlns="http://www.w3.org/2000/svg" width="720" height="666" viewBox="0 0 720 666" role="img">
<title>Persistence Lifecycle</title>
<desc>Transition between live state, durable state, restore, and recovery.</desc>
<defs>
<marker id="arrow-runtime_verified" markerWidth="10" markerHeight="8" refX="9" refY="4" orient="auto" markerUnits="strokeWidth"><path d="M 0 0 L 10 4 L 0 8 z" fill="#2E7D32"/></marker>
<marker id="arrow-experimental_verified" markerWidth="10" markerHeight="8" refX="9" refY="4" orient="auto" markerUnits="strokeWidth"><path d="M 0 0 L 10 4 L 0 8 z" fill="#2E7D32"/></marker>
<marker id="arrow-static_only" markerWidth="10" markerHeight="8" refX="9" refY="4" orient="auto" markerUnits="strokeWidth"><path d="M 0 0 L 10 4 L 0 8 z" fill="#64748B"/></marker>
<marker id="arrow-inferred" markerWidth="10" markerHeight="8" refX="9" refY="4" orient="auto" markerUnits="strokeWidth"><path d="M 0 0 L 10 4 L 0 8 z" fill="#B45309"/></marker>
<marker id="arrow-conflicted" markerWidth="10" markerHeight="8" refX="9" refY="4" orient="auto" markerUnits="strokeWidth"><path d="M 0 0 L 10 4 L 0 8 z" fill="#B91C1C"/></marker>
<marker id="arrow-unknown" markerWidth="10" markerHeight="8" refX="9" refY="4" orient="auto" markerUnits="strokeWidth"><path d="M 0 0 L 10 4 L 0 8 z" fill="#64748B"/></marker>
</defs>
<style>
text { font-family: Inter, Arial, sans-serif; letter-spacing: 0; }
.diagram-title { font-size: 24px; font-weight: 700; fill: #111827; }
.diagram-subtitle { font-size: 13px; fill: #475569; }
.group-title { font-size: 13px; font-weight: 700; fill: #334155; }
.node-name { font-size: 13px; font-weight: 700; }
.node-type { font-size: 11px; }
.edge-label { font-size: 10px; fill: #334155; paint-order: stroke; stroke: #FFFFFF; stroke-width: 4px; stroke-linejoin: round; }
.legend-title { font-size: 11px; font-weight: 700; fill: #334155; }
.legend-label { font-size: 10px; fill: #475569; }
</style>
<rect width="100%" height="100%" fill="#FFFFFF"/>
<text x="36" y="39" class="diagram-title">Persistence Lifecycle</text>
<text x="36" y="64" class="diagram-subtitle">Transition between live state, durable state, restore, and recovery.</text>
<g class="group"><rect x="36.0" y="96.0" width="240.0" height="476.0" rx="6" fill="#FFFFFF" stroke="#CBD5E1"/><text x="58.0" y="118.0" class="group-title">live</text></g>
<g class="group"><rect x="318.0" y="96.0" width="240.0" height="224.0" rx="6" fill="#FFFFFF" stroke="#CBD5E1"/><text x="340.0" y="118.0" class="group-title">durable</text></g>
<g class="edge" data-id="E-AgentSession-Session" data-evidence="S-002,S-008,R-003"><title>E-AgentSession-Session: S-002,S-008,R-003</title><path d="M 254.0 265.0 C 165.8 265.0, 146.2 181.0, 58.0 181.0" fill="none" stroke="#2E7D32" stroke-width="2" marker-end="url(#arrow-runtime_verified)"/><text x="156.0" y="218.0" class="edge-label" text-anchor="middle">live messages</text></g>
<g class="edge" data-id="E-Compactor-Session" data-evidence="S-009,X-003"><title>E-Compactor-Session: S-009,X-003</title><path d="M 340.0 181.0 C 301.3 181.0, 292.7 181.0, 254.0 181.0" fill="none" stroke="#2E7D32" stroke-width="2" marker-end="url(#arrow-experimental_verified)"/><text x="297.0" y="176.0" class="edge-label" text-anchor="middle">summary boundary</text></g>
<g class="edge" data-id="E-Compactor-Store" data-evidence="S-008,S-009,X-003"><title>E-Compactor-Store: S-008,S-009,X-003</title><path d="M 536.0 181.0 C 447.8 181.0, 428.2 265.0, 340.0 265.0" fill="none" stroke="#2E7D32" stroke-width="2" marker-end="url(#arrow-experimental_verified)"/><text x="438.0" y="218.0" class="edge-label" text-anchor="middle">compaction entry</text></g>
<g class="edge" data-id="E-Loop-Exit" data-evidence="S-001,R-001"><title>E-Loop-Exit: S-001,R-001</title><path d="M 254.0 349.0 C 165.8 349.0, 146.2 517.0, 58.0 517.0" fill="none" stroke="#2E7D32" stroke-width="2" marker-end="url(#arrow-runtime_verified)"/><text x="156.0" y="428.0" class="edge-label" text-anchor="middle">no tools/queues</text></g>
<g class="edge" data-id="E-Session-Context" data-evidence="S-008,R-004"><title>E-Session-Context: S-008,R-004</title><path d="M 254.0 181.0 C 165.8 181.0, 146.2 433.0, 58.0 433.0" fill="none" stroke="#2E7D32" stroke-width="2" marker-end="url(#arrow-runtime_verified)"/><text x="156.0" y="302.0" class="edge-label" text-anchor="middle">active branch</text></g>
<g class="edge" data-id="E-Session-Store" data-evidence="S-008,R-003"><title>E-Session-Store: S-008,R-003</title><path d="M 254.0 181.0 C 292.7 181.0, 301.3 265.0, 340.0 265.0" fill="none" stroke="#2E7D32" stroke-width="2" marker-end="url(#arrow-runtime_verified)"/><text x="297.0" y="218.0" class="edge-label" text-anchor="middle">append JSONL</text></g>
<g class="edge" data-id="E-Store-Session" data-evidence="S-008,R-004"><title>E-Store-Session: S-008,R-004</title><path d="M 340.0 265.0 C 301.3 265.0, 292.7 181.0, 254.0 181.0" fill="none" stroke="#2E7D32" stroke-width="2" marker-end="url(#arrow-runtime_verified)"/><text x="297.0" y="218.0" class="edge-label" text-anchor="middle">active branch</text></g>
<g class="node" data-id="N-AgentSession" data-evidence="S-002,S-003,R-001,X-003"><title>N-AgentSession: S-002,S-003,R-001,X-003</title><rect x="58.0" y="232.0" width="196" height="66" rx="6" fill="#E8F5E9" stroke="#2E7D32" stroke-width="2"/><text x="72.0" y="259.0" class="node-name" fill="#14261A">Coding Agent AgentSession</text><text x="72.0" y="281.0" class="node-type" fill="#14261A">AgentLoop</text></g>
<g class="node" data-id="N-LowLoop" data-evidence="S-001,R-001,R-002,X-001"><title>N-LowLoop: S-001,R-001,R-002,X-001</title><rect x="58.0" y="316.0" width="196" height="66" rx="6" fill="#E8F5E9" stroke="#2E7D32" stroke-width="2"/><text x="72.0" y="343.0" class="node-name" fill="#14261A">runAgentLoop</text><text x="72.0" y="365.0" class="node-type" fill="#14261A">AgentLoop</text></g>
<g class="node" data-id="N-Compactor" data-evidence="S-009,X-003"><title>N-Compactor: S-009,X-003</title><rect x="340.0" y="148.0" width="196" height="66" rx="6" fill="#E8F5E9" stroke="#2E7D32" stroke-width="2"/><text x="354.0" y="175.0" class="node-name" fill="#14261A">Coding Agent compaction</text><text x="354.0" y="197.0" class="node-type" fill="#14261A">Compactor</text></g>
<g class="node" data-id="N-Context" data-evidence="S-001,S-002,S-004,R-001"><title>N-Context: S-001,S-002,S-004,R-001</title><rect x="58.0" y="400.0" width="196" height="66" rx="6" fill="#E8F5E9" stroke="#2E7D32" stroke-width="2"/><text x="72.0" y="427.0" class="node-name" fill="#14261A">Context assembly</text><text x="72.0" y="449.0" class="node-type" fill="#14261A">ContextBuilder</text></g>
<g class="node" data-id="N-Exit" data-evidence="S-001,R-001,R-002"><title>N-Exit: S-001,R-001,R-002</title><rect x="58.0" y="484.0" width="196" height="66" rx="6" fill="#E8F5E9" stroke="#2E7D32" stroke-width="2"/><text x="72.0" y="511.0" class="node-name" fill="#14261A">agent_end / agent_settled</text><text x="72.0" y="533.0" class="node-type" fill="#14261A">ExitCondition</text></g>
<g class="node" data-id="N-Session" data-evidence="S-008,R-003,R-004"><title>N-Session: S-008,R-003,R-004</title><rect x="58.0" y="148.0" width="196" height="66" rx="6" fill="#E8F5E9" stroke="#2E7D32" stroke-width="2"/><text x="72.0" y="175.0" class="node-name" fill="#14261A">Live active session</text><text x="72.0" y="197.0" class="node-type" fill="#14261A">Session</text></g>
<g class="node" data-id="N-SessionStore" data-evidence="S-008,R-003,R-004"><title>N-SessionStore: S-008,R-003,R-004</title><rect x="340.0" y="232.0" width="196" height="66" rx="6" fill="#E8F5E9" stroke="#2E7D32" stroke-width="2"/><text x="354.0" y="259.0" class="node-name" fill="#14261A">Session JSONL v3</text><text x="354.0" y="281.0" class="node-type" fill="#14261A">SessionStore</text></g>
<text x="36" y="608.0" class="legend-title">Evidence state</text>
<line x1="36.0" y1="628.0" x2="64.0" y2="628.0" stroke="#2E7D32" stroke-width="2"/><text x="72.0" y="632.0" class="legend-label">Observed</text>
<line x1="165.6" y1="628.0" x2="193.6" y2="628.0" stroke="#64748B" stroke-width="2" stroke-dasharray="7 5"/><text x="201.6" y="632.0" class="legend-label">Static only</text>
<line x1="295.2" y1="628.0" x2="323.2" y2="628.0" stroke="#B45309" stroke-width="2" stroke-dasharray="2 5"/><text x="331.2" y="632.0" class="legend-label">Inferred</text>
<line x1="424.8" y1="628.0" x2="452.8" y2="628.0" stroke="#B91C1C" stroke-width="2"/><text x="460.8" y="632.0" class="legend-label">Conflicted</text>
<line x1="554.4" y1="628.0" x2="582.4" y2="628.0" stroke="#64748B" stroke-width="2" stroke-dasharray="3 5"/><text x="590.4" y="632.0" class="legend-label">Unknown</text>
</svg>
