<?xml version="1.0" encoding="UTF-8"?>
<svg xmlns="http://www.w3.org/2000/svg" width="2004" height="666" viewBox="0 0 2004 666" role="img">
<title>System Overview</title>
<desc>Major runtime responsibilities and external boundaries.</desc>
<defs>
<marker id="arrow-runtime_verified" markerWidth="10" markerHeight="8" refX="9" refY="4" orient="auto" markerUnits="strokeWidth"><path d="M 0 0 L 10 4 L 0 8 z" fill="#2E7D32"/></marker>
<marker id="arrow-experimental_verified" markerWidth="10" markerHeight="8" refX="9" refY="4" orient="auto" markerUnits="strokeWidth"><path d="M 0 0 L 10 4 L 0 8 z" fill="#2E7D32"/></marker>
<marker id="arrow-static_only" markerWidth="10" markerHeight="8" refX="9" refY="4" orient="auto" markerUnits="strokeWidth"><path d="M 0 0 L 10 4 L 0 8 z" fill="#64748B"/></marker>
<marker id="arrow-inferred" markerWidth="10" markerHeight="8" refX="9" refY="4" orient="auto" markerUnits="strokeWidth"><path d="M 0 0 L 10 4 L 0 8 z" fill="#B45309"/></marker>
<marker id="arrow-conflicted" markerWidth="10" markerHeight="8" refX="9" refY="4" orient="auto" markerUnits="strokeWidth"><path d="M 0 0 L 10 4 L 0 8 z" fill="#B91C1C"/></marker>
<marker id="arrow-unknown" markerWidth="10" markerHeight="8" refX="9" refY="4" orient="auto" markerUnits="strokeWidth"><path d="M 0 0 L 10 4 L 0 8 z" fill="#64748B"/></marker>
</defs>
<style>
text { font-family: Inter, Arial, sans-serif; letter-spacing: 0; }
.diagram-title { font-size: 24px; font-weight: 700; fill: #111827; }
.diagram-subtitle { font-size: 13px; fill: #475569; }
.group-title { font-size: 13px; font-weight: 700; fill: #334155; }
.node-name { font-size: 13px; font-weight: 700; }
.node-type { font-size: 11px; }
.edge-label { font-size: 10px; fill: #334155; paint-order: stroke; stroke: #FFFFFF; stroke-width: 4px; stroke-linejoin: round; }
.legend-title { font-size: 11px; font-weight: 700; fill: #334155; }
.legend-label { font-size: 10px; fill: #475569; }
</style>
<rect width="100%" height="100%" fill="#FFFFFF"/>
<text x="36" y="39" class="diagram-title">System Overview</text>
<text x="36" y="64" class="diagram-subtitle">Major runtime responsibilities and external boundaries.</text>
<g class="group"><rect x="36.0" y="96.0" width="240.0" height="224.0" rx="6" fill="#FFFFFF" stroke="#CBD5E1"/><text x="58.0" y="118.0" class="group-title">interface</text></g>
<g class="group"><rect x="318.0" y="96.0" width="240.0" height="476.0" rx="6" fill="#FFFFFF" stroke="#CBD5E1"/><text x="340.0" y="118.0" class="group-title">orchestration</text></g>
<g class="group"><rect x="600.0" y="96.0" width="240.0" height="224.0" rx="6" fill="#FFFFFF" stroke="#CBD5E1"/><text x="622.0" y="118.0" class="group-title">context-capability</text></g>
<g class="group"><rect x="882.0" y="96.0" width="240.0" height="224.0" rx="6" fill="#FFFFFF" stroke="#CBD5E1"/><text x="904.0" y="118.0" class="group-title">infrastructure</text></g>
<g class="group"><rect x="1164.0" y="96.0" width="240.0" height="224.0" rx="6" fill="#FFFFFF" stroke="#CBD5E1"/><text x="1186.0" y="118.0" class="group-title">execution</text></g>
<g class="group"><rect x="1446.0" y="96.0" width="240.0" height="224.0" rx="6" fill="#FFFFFF" stroke="#CBD5E1"/><text x="1468.0" y="118.0" class="group-title">state</text></g>
<g class="group"><rect x="1728.0" y="96.0" width="240.0" height="140.0" rx="6" fill="#FFFFFF" stroke="#CBD5E1"/><text x="1750.0" y="118.0" class="group-title">observability</text></g>
<g class="edge" data-id="E-AgentHarness-Loop" data-evidence="S-011,X-002"><title>E-AgentHarness-Loop: S-011,X-002</title><path d="M 536.0 265.0 C 447.8 265.0, 428.2 349.0, 340.0 349.0" fill="none" stroke="#2E7D32" stroke-width="2" marker-end="url(#arrow-experimental_verified)"/><text x="438.0" y="302.0" class="edge-label" text-anchor="middle">direct loop</text></g>
<g class="edge" data-id="E-AgentSession-Loop" data-evidence="S-002,R-001,R-002"><title>E-AgentSession-Loop: S-002,R-001,R-002</title><path d="M 536.0 181.0 C 447.8 181.0, 428.2 349.0, 340.0 349.0" fill="none" stroke="#2E7D32" stroke-width="2" marker-end="url(#arrow-runtime_verified)"/><text x="438.0" y="260.0" class="edge-label" text-anchor="middle">prompt/continue</text></g>
<g class="edge" data-id="E-CLI-Main" data-evidence="S-013,R-001"><title>E-CLI-Main: S-013,R-001</title><path d="M 254.0 181.0 C 165.8 181.0, 146.2 265.0, 58.0 265.0" fill="none" stroke="#2E7D32" stroke-width="2" marker-end="url(#arrow-runtime_verified)"/><text x="156.0" y="218.0" class="edge-label" text-anchor="middle">invoke</text></g>
<g class="edge" data-id="E-Context-Model" data-evidence="S-001,R-001"><title>E-Context-Model: S-001,R-001</title><path d="M 818.0 181.0 C 856.7 181.0, 865.3 265.0, 904.0 265.0" fill="none" stroke="#2E7D32" stroke-width="2" marker-end="url(#arrow-runtime_verified)"/><text x="861.0" y="218.0" class="edge-label" text-anchor="middle">system/messages/tools</text></g>
<g class="edge" data-id="E-Loop-Context" data-evidence="S-001,R-001"><title>E-Loop-Context: S-001,R-001</title><path d="M 536.0 349.0 C 574.7 349.0, 583.3 181.0, 622.0 181.0" fill="none" stroke="#2E7D32" stroke-width="2" marker-end="url(#arrow-runtime_verified)"/><text x="579.0" y="260.0" class="edge-label" text-anchor="middle">convert before request</text></g>
<g class="edge" data-id="E-Loop-Events" data-evidence="D-005,R-001,R-002"><title>E-Loop-Events: D-005,R-001,R-002</title><path d="M 536.0 349.0 C 1082.3 349.0, 1203.7 181.0, 1750.0 181.0" fill="none" stroke="#2E7D32" stroke-width="2" marker-end="url(#arrow-runtime_verified)"/><text x="1143.0" y="260.0" class="edge-label" text-anchor="middle">lifecycle events</text></g>
<g class="edge" data-id="E-Loop-Exit" data-evidence="S-001,R-001"><title>E-Loop-Exit: S-001,R-001</title><path d="M 536.0 349.0 C 447.8 349.0, 428.2 517.0, 340.0 517.0" fill="none" stroke="#2E7D32" stroke-width="2" marker-end="url(#arrow-runtime_verified)"/><text x="438.0" y="428.0" class="edge-label" text-anchor="middle">no tools/queues</text></g>
<g class="edge" data-id="E-Loop-Tool" data-evidence="S-001,R-002"><title>E-Loop-Tool: S-001,R-002</title><path d="M 536.0 349.0 C 828.5 349.0, 893.5 181.0, 1186.0 181.0" fill="none" stroke="#2E7D32" stroke-width="2" marker-end="url(#arrow-runtime_verified)"/><text x="861.0" y="260.0" class="edge-label" text-anchor="middle">dispatch</text></g>
<g class="edge" data-id="E-Models-Call" data-evidence="S-012,R-001"><title>E-Models-Call: S-012,R-001</title><path d="M 1100.0 181.0 C 1011.8 181.0, 992.2 265.0, 904.0 265.0" fill="none" stroke="#2E7D32" stroke-width="2" marker-end="url(#arrow-runtime_verified)"/><text x="1002.0" y="218.0" class="edge-label" text-anchor="middle">auth + dispatch</text></g>
<g class="edge" data-id="E-Session-Store" data-evidence="S-008,R-003"><title>E-Session-Store: S-008,R-003</title><path d="M 1664.0 181.0 C 1575.8 181.0, 1556.2 265.0, 1468.0 265.0" fill="none" stroke="#2E7D32" stroke-width="2" marker-end="url(#arrow-runtime_verified)"/><text x="1566.0" y="218.0" class="edge-label" text-anchor="middle">append JSONL</text></g>
<g class="edge" data-id="E-Store-Session" data-evidence="S-008,R-004"><title>E-Store-Session: S-008,R-004</title><path d="M 1664.0 265.0 C 1575.8 265.0, 1556.2 181.0, 1468.0 181.0" fill="none" stroke="#2E7D32" stroke-width="2" marker-end="url(#arrow-runtime_verified)"/><text x="1566.0" y="218.0" class="edge-label" text-anchor="middle">active branch</text></g>
<g class="node" data-id="N-AgentSession" data-evidence="S-002,S-003,R-001,X-003"><title>N-AgentSession: S-002,S-003,R-001,X-003</title><rect x="340.0" y="148.0" width="196" height="66" rx="6" fill="#E8F5E9" stroke="#2E7D32" stroke-width="2"/><text x="354.0" y="175.0" class="node-name" fill="#14261A">Coding Agent AgentSession</text><text x="354.0" y="197.0" class="node-type" fill="#14261A">AgentLoop</text></g>
<g class="node" data-id="N-AgentHarness" data-evidence="D-003,S-011,X-002"><title>N-AgentHarness: D-003,S-011,X-002</title><rect x="340.0" y="232.0" width="196" height="66" rx="6" fill="#E8F5E9" stroke="#2E7D32" stroke-width="2"/><text x="354.0" y="259.0" class="node-name" fill="#14261A">New AgentHarness</text><text x="354.0" y="281.0" class="node-type" fill="#14261A">AgentLoop</text></g>
<g class="node" data-id="N-LowLoop" data-evidence="S-001,R-001,R-002,X-001"><title>N-LowLoop: S-001,R-001,R-002,X-001</title><rect x="340.0" y="316.0" width="196" height="66" rx="6" fill="#E8F5E9" stroke="#2E7D32" stroke-width="2"/><text x="354.0" y="343.0" class="node-name" fill="#14261A">runAgentLoop</text><text x="354.0" y="365.0" class="node-type" fill="#14261A">AgentLoop</text></g>
<g class="node" data-id="N-Context" data-evidence="S-001,S-002,S-004,R-001"><title>N-Context: S-001,S-002,S-004,R-001</title><rect x="622.0" y="148.0" width="196" height="66" rx="6" fill="#E8F5E9" stroke="#2E7D32" stroke-width="2"/><text x="636.0" y="175.0" class="node-name" fill="#14261A">Context assembly</text><text x="636.0" y="197.0" class="node-type" fill="#14261A">ContextBuilder</text></g>
<g class="node" data-id="N-Main" data-evidence="S-013,R-001"><title>N-Main: S-013,R-001</title><rect x="58.0" y="232.0" width="196" height="66" rx="6" fill="#E8F5E9" stroke="#2E7D32" stroke-width="2"/><text x="72.0" y="259.0" class="node-name" fill="#14261A">main()</text><text x="72.0" y="281.0" class="node-type" fill="#14261A">Entrypoint</text></g>
<g class="node" data-id="N-Exit" data-evidence="S-001,R-001,R-002"><title>N-Exit: S-001,R-001,R-002</title><rect x="340.0" y="484.0" width="196" height="66" rx="6" fill="#E8F5E9" stroke="#2E7D32" stroke-width="2"/><text x="354.0" y="511.0" class="node-name" fill="#14261A">agent_end / agent_settled</text><text x="354.0" y="533.0" class="node-type" fill="#14261A">ExitCondition</text></g>
<g class="node" data-id="N-CLI" data-evidence="S-013,R-001"><title>N-CLI: S-013,R-001</title><rect x="58.0" y="148.0" width="196" height="66" rx="6" fill="#E8F5E9" stroke="#2E7D32" stroke-width="2"/><text x="72.0" y="175.0" class="node-name" fill="#14261A">pi CLI / JSON / RPC / TUI</text><text x="72.0" y="197.0" class="node-type" fill="#14261A">Interface</text></g>
<g class="node" data-id="N-Models" data-evidence="S-012,R-005,R-001"><title>N-Models: S-012,R-005,R-001</title><rect x="904.0" y="148.0" width="196" height="66" rx="6" fill="#E8F5E9" stroke="#2E7D32" stroke-width="2"/><text x="918.0" y="175.0" class="node-name" fill="#14261A">pi-ai Models / ModelRegistry</text><text x="918.0" y="197.0" class="node-type" fill="#14261A">ModelAdapter</text></g>
<g class="node" data-id="N-ModelCall" data-evidence="S-001,S-012,R-001,R-002"><title>N-ModelCall: S-001,S-012,R-001,R-002</title><rect x="904.0" y="232.0" width="196" height="66" rx="6" fill="#E8F5E9" stroke="#2E7D32" stroke-width="2"/><text x="918.0" y="259.0" class="node-name" fill="#14261A">Provider request</text><text x="918.0" y="281.0" class="node-type" fill="#14261A">ModelCall</text></g>
<g class="node" data-id="N-Retry" data-evidence="S-009,S-010,X-003"><title>N-Retry: S-009,S-010,X-003</title><rect x="340.0" y="400.0" width="196" height="66" rx="6" fill="#E8F5E9" stroke="#2E7D32" stroke-width="2"/><text x="354.0" y="427.0" class="node-name" fill="#14261A">Retry / overflow recovery</text><text x="354.0" y="449.0" class="node-type" fill="#14261A">RecoveryPolicy</text></g>
<g class="node" data-id="N-Session" data-evidence="S-008,R-003,R-004"><title>N-Session: S-008,R-003,R-004</title><rect x="1468.0" y="148.0" width="196" height="66" rx="6" fill="#E8F5E9" stroke="#2E7D32" stroke-width="2"/><text x="1482.0" y="175.0" class="node-name" fill="#14261A">Live active session</text><text x="1482.0" y="197.0" class="node-type" fill="#14261A">Session</text></g>
<g class="node" data-id="N-SessionStore" data-evidence="S-008,R-003,R-004"><title>N-SessionStore: S-008,R-003,R-004</title><rect x="1468.0" y="232.0" width="196" height="66" rx="6" fill="#E8F5E9" stroke="#2E7D32" stroke-width="2"/><text x="1482.0" y="259.0" class="node-name" fill="#14261A">Session JSONL v3</text><text x="1482.0" y="281.0" class="node-type" fill="#14261A">SessionStore</text></g>
<g class="node" data-id="N-Events" data-evidence="D-005,R-001,R-002"><title>N-Events: D-005,R-001,R-002</title><rect x="1750.0" y="148.0" width="196" height="66" rx="6" fill="#E8F5E9" stroke="#2E7D32" stroke-width="2"/><text x="1764.0" y="175.0" class="node-name" fill="#14261A">Agent events + JSON/RPC</text><text x="1764.0" y="197.0" class="node-type" fill="#14261A">TelemetrySink</text></g>
<g class="node" data-id="N-ReadTool" data-evidence="R-002,S-003"><title>N-ReadTool: R-002,S-003</title><rect x="1186.0" y="148.0" width="196" height="66" rx="6" fill="#E8F5E9" stroke="#2E7D32" stroke-width="2"/><text x="1200.0" y="175.0" class="node-name" fill="#14261A">read tool</text><text x="1200.0" y="197.0" class="node-type" fill="#14261A">Tool</text></g>
<g class="node" data-id="N-ToolRegistry" data-evidence="S-003,R-002"><title>N-ToolRegistry: S-003,R-002</title><rect x="622.0" y="232.0" width="196" height="66" rx="6" fill="#E8F5E9" stroke="#2E7D32" stroke-width="2"/><text x="636.0" y="259.0" class="node-name" fill="#14261A">Unified tool registry</text><text x="636.0" y="281.0" class="node-type" fill="#14261A">ToolRegistry</text></g>
<g class="node" data-id="N-Workspace" data-evidence="S-007,R-002"><title>N-Workspace: S-007,R-002</title><rect x="1186.0" y="232.0" width="196" height="66" rx="6" fill="#E8F5E9" stroke="#2E7D32" stroke-width="2"/><text x="1200.0" y="259.0" class="node-name" fill="#14261A">cwd workspace</text><text x="1200.0" y="281.0" class="node-type" fill="#14261A">Workspace</text></g>
<text x="36" y="608.0" class="legend-title">Evidence state</text>
<line x1="36.0" y1="628.0" x2="64.0" y2="628.0" stroke="#2E7D32" stroke-width="2"/><text x="72.0" y="632.0" class="legend-label">Observed</text>
<line x1="196.0" y1="628.0" x2="224.0" y2="628.0" stroke="#64748B" stroke-width="2" stroke-dasharray="7 5"/><text x="232.0" y="632.0" class="legend-label">Static only</text>
<line x1="356.0" y1="628.0" x2="384.0" y2="628.0" stroke="#B45309" stroke-width="2" stroke-dasharray="2 5"/><text x="392.0" y="632.0" class="legend-label">Inferred</text>
<line x1="516.0" y1="628.0" x2="544.0" y2="628.0" stroke="#B91C1C" stroke-width="2"/><text x="552.0" y="632.0" class="legend-label">Conflicted</text>
<line x1="676.0" y1="628.0" x2="704.0" y2="628.0" stroke="#64748B" stroke-width="2" stroke-dasharray="3 5"/><text x="712.0" y="632.0" class="legend-label">Unknown</text>
</svg>
