<?xml version="1.0" encoding="UTF-8"?>
<svg xmlns="http://www.w3.org/2000/svg" width="2004" height="498" viewBox="0 0 2004 498" role="img">
<title>Tool And Extension Surface</title>
<desc>Capability registration, authorization, execution, and result return.</desc>
<defs>
<marker id="arrow-runtime_verified" markerWidth="10" markerHeight="8" refX="9" refY="4" orient="auto" markerUnits="strokeWidth"><path d="M 0 0 L 10 4 L 0 8 z" fill="#2E7D32"/></marker>
<marker id="arrow-experimental_verified" markerWidth="10" markerHeight="8" refX="9" refY="4" orient="auto" markerUnits="strokeWidth"><path d="M 0 0 L 10 4 L 0 8 z" fill="#2E7D32"/></marker>
<marker id="arrow-static_only" markerWidth="10" markerHeight="8" refX="9" refY="4" orient="auto" markerUnits="strokeWidth"><path d="M 0 0 L 10 4 L 0 8 z" fill="#64748B"/></marker>
<marker id="arrow-inferred" markerWidth="10" markerHeight="8" refX="9" refY="4" orient="auto" markerUnits="strokeWidth"><path d="M 0 0 L 10 4 L 0 8 z" fill="#B45309"/></marker>
<marker id="arrow-conflicted" markerWidth="10" markerHeight="8" refX="9" refY="4" orient="auto" markerUnits="strokeWidth"><path d="M 0 0 L 10 4 L 0 8 z" fill="#B91C1C"/></marker>
<marker id="arrow-unknown" markerWidth="10" markerHeight="8" refX="9" refY="4" orient="auto" markerUnits="strokeWidth"><path d="M 0 0 L 10 4 L 0 8 z" fill="#64748B"/></marker>
</defs>
<style>
text { font-family: Inter, Arial, sans-serif; letter-spacing: 0; }
.diagram-title { font-size: 24px; font-weight: 700; fill: #111827; }
.diagram-subtitle { font-size: 13px; fill: #475569; }
.group-title { font-size: 13px; font-weight: 700; fill: #334155; }
.node-name { font-size: 13px; font-weight: 700; }
.node-type { font-size: 11px; }
.edge-label { font-size: 10px; fill: #334155; paint-order: stroke; stroke: #FFFFFF; stroke-width: 4px; stroke-linejoin: round; }
.legend-title { font-size: 11px; font-weight: 700; fill: #334155; }
.legend-label { font-size: 10px; fill: #475569; }
</style>
<rect width="100%" height="100%" fill="#FFFFFF"/>
<text x="36" y="39" class="diagram-title">Tool And Extension Surface</text>
<text x="36" y="64" class="diagram-subtitle">Capability registration, authorization, execution, and result return.</text>
<g class="group"><rect x="36.0" y="96.0" width="240.0" height="308.0" rx="6" fill="#FFFFFF" stroke="#CBD5E1"/><text x="58.0" y="118.0" class="group-title">orchestration</text></g>
<g class="group"><rect x="318.0" y="96.0" width="240.0" height="224.0" rx="6" fill="#FFFFFF" stroke="#CBD5E1"/><text x="340.0" y="118.0" class="group-title">context-capability</text></g>
<g class="group"><rect x="600.0" y="96.0" width="240.0" height="140.0" rx="6" fill="#FFFFFF" stroke="#CBD5E1"/><text x="622.0" y="118.0" class="group-title">infrastructure</text></g>
<g class="group"><rect x="882.0" y="96.0" width="240.0" height="140.0" rx="6" fill="#FFFFFF" stroke="#CBD5E1"/><text x="904.0" y="118.0" class="group-title">extension</text></g>
<g class="group"><rect x="1164.0" y="96.0" width="240.0" height="224.0" rx="6" fill="#FFFFFF" stroke="#CBD5E1"/><text x="1186.0" y="118.0" class="group-title">governance</text></g>
<g class="group"><rect x="1446.0" y="96.0" width="240.0" height="308.0" rx="6" fill="#FFFFFF" stroke="#CBD5E1"/><text x="1468.0" y="118.0" class="group-title">execution</text></g>
<g class="group"><rect x="1728.0" y="96.0" width="240.0" height="140.0" rx="6" fill="#FFFFFF" stroke="#CBD5E1"/><text x="1750.0" y="118.0" class="group-title">observability</text></g>
<g class="edge" data-id="E-AgentHarness-Loop" data-evidence="S-011,X-002"><title>E-AgentHarness-Loop: S-011,X-002</title><path d="M 254.0 265.0 C 165.8 265.0, 146.2 349.0, 58.0 349.0" fill="none" stroke="#2E7D32" stroke-width="2" marker-end="url(#arrow-experimental_verified)"/><text x="156.0" y="302.0" class="edge-label" text-anchor="middle">direct loop</text></g>
<g class="edge" data-id="E-AgentSession-Loop" data-evidence="S-002,R-001,R-002"><title>E-AgentSession-Loop: S-002,R-001,R-002</title><path d="M 254.0 181.0 C 165.8 181.0, 146.2 349.0, 58.0 349.0" fill="none" stroke="#2E7D32" stroke-width="2" marker-end="url(#arrow-runtime_verified)"/><text x="156.0" y="260.0" class="edge-label" text-anchor="middle">prompt/continue</text></g>
<g class="edge" data-id="E-Context-Model" data-evidence="S-001,R-001"><title>E-Context-Model: S-001,R-001</title><path d="M 536.0 265.0 C 574.7 265.0, 583.3 181.0, 622.0 181.0" fill="none" stroke="#2E7D32" stroke-width="2" marker-end="url(#arrow-runtime_verified)"/><text x="579.0" y="218.0" class="edge-label" text-anchor="middle">system/messages/tools</text></g>
<g class="edge" data-id="E-Sandbox-Bash" data-evidence="D-007"><title>E-Sandbox-Bash: D-007</title><path d="M 1664.0 265.0 C 1575.8 265.0, 1556.2 349.0, 1468.0 349.0" fill="none" stroke="#64748B" stroke-width="2" stroke-dasharray="7 5" marker-end="url(#arrow-static_only)"/><text x="1566.0" y="302.0" class="edge-label" text-anchor="middle">optional routed backend</text></g>
<g class="edge" data-id="E-Hook-Gate" data-evidence="S-003,S-017,X-001"><title>E-Hook-Gate: S-003,S-017,X-001</title><path d="M 1382.0 181.0 C 1293.8 181.0, 1274.2 265.0, 1186.0 265.0" fill="none" stroke="#2E7D32" stroke-width="2" marker-end="url(#arrow-experimental_verified)"/><text x="1284.0" y="218.0" class="edge-label" text-anchor="middle">tool_call policy</text></g>
<g class="edge" data-id="E-Loop-Events" data-evidence="D-005,R-001,R-002"><title>E-Loop-Events: D-005,R-001,R-002</title><path d="M 254.0 349.0 C 927.2 349.0, 1076.8 181.0, 1750.0 181.0" fill="none" stroke="#2E7D32" stroke-width="2" marker-end="url(#arrow-runtime_verified)"/><text x="1002.0" y="260.0" class="edge-label" text-anchor="middle">lifecycle events</text></g>
<g class="edge" data-id="E-Loop-Tool" data-evidence="S-001,R-002"><title>E-Loop-Tool: S-001,R-002</title><path d="M 254.0 349.0 C 800.3 349.0, 921.7 181.0, 1468.0 181.0" fill="none" stroke="#2E7D32" stroke-width="2" marker-end="url(#arrow-runtime_verified)"/><text x="861.0" y="260.0" class="edge-label" text-anchor="middle">dispatch</text></g>
<g class="edge" data-id="E-Model-Tool" data-evidence="R-002"><title>E-Model-Tool: R-002</title><path d="M 818.0 181.0 C 1110.5 181.0, 1175.5 181.0, 1468.0 181.0" fill="none" stroke="#2E7D32" stroke-width="2" marker-end="url(#arrow-runtime_verified)"/><text x="1143.0" y="176.0" class="edge-label" text-anchor="middle">toolUse</text></g>
<g class="edge" data-id="E-Gate-Tool" data-evidence="S-003,S-017"><title>E-Gate-Tool: S-003,S-017</title><path d="M 1382.0 265.0 C 1420.7 265.0, 1429.3 181.0, 1468.0 181.0" fill="none" stroke="#64748B" stroke-width="2" stroke-dasharray="7 5" marker-end="url(#arrow-static_only)"/><text x="1425.0" y="218.0" class="edge-label" text-anchor="middle">allow/block</text></g>
<g class="edge" data-id="E-Tool-Context" data-evidence="S-001,R-002"><title>E-Tool-Context: S-001,R-002</title><path d="M 1468.0 181.0 C 1048.6 181.0, 955.4 265.0, 536.0 265.0" fill="none" stroke="#2E7D32" stroke-width="2" marker-end="url(#arrow-runtime_verified)"/><text x="1002.0" y="218.0" class="edge-label" text-anchor="middle">toolResult</text></g>
<g class="edge" data-id="E-Plugin-Registry" data-evidence="S-015"><title>E-Plugin-Registry: S-015</title><path d="M 904.0 181.0 C 738.4 181.0, 701.6 181.0, 536.0 181.0" fill="none" stroke="#64748B" stroke-width="2" stroke-dasharray="7 5" marker-end="url(#arrow-static_only)"/><text x="720.0" y="176.0" class="edge-label" text-anchor="middle">subagent tool</text></g>
<g class="edge" data-id="E-Registry-Tool" data-evidence="S-003,R-002"><title>E-Registry-Tool: S-003,R-002</title><path d="M 536.0 181.0 C 955.4 181.0, 1048.6 181.0, 1468.0 181.0" fill="none" stroke="#2E7D32" stroke-width="2" marker-end="url(#arrow-runtime_verified)"/><text x="1002.0" y="176.0" class="edge-label" text-anchor="middle">active tool</text></g>
<g class="node" data-id="N-AgentSession" data-evidence="S-002,S-003,R-001,X-003"><title>N-AgentSession: S-002,S-003,R-001,X-003</title><rect x="58.0" y="148.0" width="196" height="66" rx="6" fill="#E8F5E9" stroke="#2E7D32" stroke-width="2"/><text x="72.0" y="175.0" class="node-name" fill="#14261A">Coding Agent AgentSession</text><text x="72.0" y="197.0" class="node-type" fill="#14261A">AgentLoop</text></g>
<g class="node" data-id="N-AgentHarness" data-evidence="D-003,S-011,X-002"><title>N-AgentHarness: D-003,S-011,X-002</title><rect x="58.0" y="232.0" width="196" height="66" rx="6" fill="#E8F5E9" stroke="#2E7D32" stroke-width="2"/><text x="72.0" y="259.0" class="node-name" fill="#14261A">New AgentHarness</text><text x="72.0" y="281.0" class="node-type" fill="#14261A">AgentLoop</text></g>
<g class="node" data-id="N-LowLoop" data-evidence="S-001,R-001,R-002,X-001"><title>N-LowLoop: S-001,R-001,R-002,X-001</title><rect x="58.0" y="316.0" width="196" height="66" rx="6" fill="#E8F5E9" stroke="#2E7D32" stroke-width="2"/><text x="72.0" y="343.0" class="node-name" fill="#14261A">runAgentLoop</text><text x="72.0" y="365.0" class="node-type" fill="#14261A">AgentLoop</text></g>
<g class="node" data-id="N-Context" data-evidence="S-001,S-002,S-004,R-001"><title>N-Context: S-001,S-002,S-004,R-001</title><rect x="340.0" y="232.0" width="196" height="66" rx="6" fill="#E8F5E9" stroke="#2E7D32" stroke-width="2"/><text x="354.0" y="259.0" class="node-name" fill="#14261A">Context assembly</text><text x="354.0" y="281.0" class="node-type" fill="#14261A">ContextBuilder</text></g>
<g class="node" data-id="N-Bash" data-evidence="S-007,D-002"><title>N-Bash: S-007,D-002</title><rect x="1468.0" y="316.0" width="196" height="66" rx="6" fill="#F8FAFC" stroke="#64748B" stroke-width="2"/><text x="1482.0" y="343.0" class="node-name" fill="#1E293B">Local bash backend</text><text x="1482.0" y="365.0" class="node-type" fill="#1E293B">ExecutionBackend</text></g>
<g class="node" data-id="N-Hooks" data-evidence="S-002,S-003,S-017,X-001"><title>N-Hooks: S-002,S-003,S-017,X-001</title><rect x="1186.0" y="148.0" width="196" height="66" rx="6" fill="#E8F5E9" stroke="#2E7D32" stroke-width="2"/><text x="1200.0" y="175.0" class="node-name" fill="#14261A">Extension hooks</text><text x="1200.0" y="197.0" class="node-type" fill="#14261A">Hook</text></g>
<g class="node" data-id="N-ModelCall" data-evidence="S-001,S-012,R-001,R-002"><title>N-ModelCall: S-001,S-012,R-001,R-002</title><rect x="622.0" y="148.0" width="196" height="66" rx="6" fill="#E8F5E9" stroke="#2E7D32" stroke-width="2"/><text x="636.0" y="175.0" class="node-name" fill="#14261A">Provider request</text><text x="636.0" y="197.0" class="node-type" fill="#14261A">ModelCall</text></g>
<g class="node" data-id="N-OptionalGate" data-evidence="D-004,S-017"><title>N-OptionalGate: D-004,S-017</title><rect x="1186.0" y="232.0" width="196" height="66" rx="6" fill="#F8FAFC" stroke="#64748B" stroke-width="2"/><text x="1200.0" y="259.0" class="node-name" fill="#1E293B">Optional extension gate</text><text x="1200.0" y="281.0" class="node-type" fill="#1E293B">PermissionGate</text></g>
<g class="node" data-id="N-SubagentPlugin" data-evidence="D-006,S-015"><title>N-SubagentPlugin: D-006,S-015</title><rect x="904.0" y="148.0" width="196" height="66" rx="6" fill="#F8FAFC" stroke="#64748B" stroke-width="2"/><text x="918.0" y="175.0" class="node-name" fill="#1E293B">Subagent example extension</text><text x="918.0" y="197.0" class="node-type" fill="#1E293B">Plugin</text></g>
<g class="node" data-id="N-ExternalSandbox" data-evidence="D-007"><title>N-ExternalSandbox: D-007</title><rect x="1468.0" y="232.0" width="196" height="66" rx="6" fill="#F8FAFC" stroke="#64748B" stroke-width="2"/><text x="1482.0" y="259.0" class="node-name" fill="#1E293B">External container / VM</text><text x="1482.0" y="281.0" class="node-type" fill="#1E293B">Sandbox</text></g>
<g class="node" data-id="N-Events" data-evidence="D-005,R-001,R-002"><title>N-Events: D-005,R-001,R-002</title><rect x="1750.0" y="148.0" width="196" height="66" rx="6" fill="#E8F5E9" stroke="#2E7D32" stroke-width="2"/><text x="1764.0" y="175.0" class="node-name" fill="#14261A">Agent events + JSON/RPC</text><text x="1764.0" y="197.0" class="node-type" fill="#14261A">TelemetrySink</text></g>
<g class="node" data-id="N-ReadTool" data-evidence="R-002,S-003"><title>N-ReadTool: R-002,S-003</title><rect x="1468.0" y="148.0" width="196" height="66" rx="6" fill="#E8F5E9" stroke="#2E7D32" stroke-width="2"/><text x="1482.0" y="175.0" class="node-name" fill="#14261A">read tool</text><text x="1482.0" y="197.0" class="node-type" fill="#14261A">Tool</text></g>
<g class="node" data-id="N-ToolRegistry" data-evidence="S-003,R-002"><title>N-ToolRegistry: S-003,R-002</title><rect x="340.0" y="148.0" width="196" height="66" rx="6" fill="#E8F5E9" stroke="#2E7D32" stroke-width="2"/><text x="354.0" y="175.0" class="node-name" fill="#14261A">Unified tool registry</text><text x="354.0" y="197.0" class="node-type" fill="#14261A">ToolRegistry</text></g>
<text x="36" y="440.0" class="legend-title">Evidence state</text>
<line x1="36.0" y1="460.0" x2="64.0" y2="460.0" stroke="#2E7D32" stroke-width="2"/><text x="72.0" y="464.0" class="legend-label">Observed</text>
<line x1="196.0" y1="460.0" x2="224.0" y2="460.0" stroke="#64748B" stroke-width="2" stroke-dasharray="7 5"/><text x="232.0" y="464.0" class="legend-label">Static only</text>
<line x1="356.0" y1="460.0" x2="384.0" y2="460.0" stroke="#B45309" stroke-width="2" stroke-dasharray="2 5"/><text x="392.0" y="464.0" class="legend-label">Inferred</text>
<line x1="516.0" y1="460.0" x2="544.0" y2="460.0" stroke="#B91C1C" stroke-width="2"/><text x="552.0" y="464.0" class="legend-label">Conflicted</text>
<line x1="676.0" y1="460.0" x2="704.0" y2="460.0" stroke="#64748B" stroke-width="2" stroke-dasharray="3 5"/><text x="712.0" y="464.0" class="legend-label">Unknown</text>
</svg>
