<?xml version="1.0" encoding="UTF-8"?>
<svg xmlns="http://www.w3.org/2000/svg" width="1722" height="750" viewBox="0 0 1722 750" role="img">
<title>Runtime Turn Flow</title>
<desc>Control flow from interface input through loop iterations and exit.</desc>
<defs>
<marker id="arrow-runtime_verified" markerWidth="10" markerHeight="8" refX="9" refY="4" orient="auto" markerUnits="strokeWidth"><path d="M 0 0 L 10 4 L 0 8 z" fill="#2E7D32"/></marker>
<marker id="arrow-experimental_verified" markerWidth="10" markerHeight="8" refX="9" refY="4" orient="auto" markerUnits="strokeWidth"><path d="M 0 0 L 10 4 L 0 8 z" fill="#2E7D32"/></marker>
<marker id="arrow-static_only" markerWidth="10" markerHeight="8" refX="9" refY="4" orient="auto" markerUnits="strokeWidth"><path d="M 0 0 L 10 4 L 0 8 z" fill="#64748B"/></marker>
<marker id="arrow-inferred" markerWidth="10" markerHeight="8" refX="9" refY="4" orient="auto" markerUnits="strokeWidth"><path d="M 0 0 L 10 4 L 0 8 z" fill="#B45309"/></marker>
<marker id="arrow-conflicted" markerWidth="10" markerHeight="8" refX="9" refY="4" orient="auto" markerUnits="strokeWidth"><path d="M 0 0 L 10 4 L 0 8 z" fill="#B91C1C"/></marker>
<marker id="arrow-unknown" markerWidth="10" markerHeight="8" refX="9" refY="4" orient="auto" markerUnits="strokeWidth"><path d="M 0 0 L 10 4 L 0 8 z" fill="#64748B"/></marker>
</defs>
<style>
text { font-family: Inter, Arial, sans-serif; letter-spacing: 0; }
.diagram-title { font-size: 24px; font-weight: 700; fill: #111827; }
.diagram-subtitle { font-size: 13px; fill: #475569; }
.group-title { font-size: 13px; font-weight: 700; fill: #334155; }
.node-name { font-size: 13px; font-weight: 700; }
.node-type { font-size: 11px; }
.edge-label { font-size: 10px; fill: #334155; paint-order: stroke; stroke: #FFFFFF; stroke-width: 4px; stroke-linejoin: round; }
.legend-title { font-size: 11px; font-weight: 700; fill: #334155; }
.legend-label { font-size: 10px; fill: #475569; }
</style>
<rect width="100%" height="100%" fill="#FFFFFF"/>
<text x="36" y="39" class="diagram-title">Runtime Turn Flow</text>
<text x="36" y="64" class="diagram-subtitle">Control flow from interface input through loop iterations and exit.</text>
<g class="group"><rect x="36.0" y="96.0" width="240.0" height="560.0" rx="6" fill="#FFFFFF" stroke="#CBD5E1"/><text x="58.0" y="118.0" class="group-title">orchestration</text></g>
<g class="group"><rect x="318.0" y="96.0" width="240.0" height="140.0" rx="6" fill="#FFFFFF" stroke="#CBD5E1"/><text x="340.0" y="118.0" class="group-title">context-capability</text></g>
<g class="group"><rect x="600.0" y="96.0" width="240.0" height="140.0" rx="6" fill="#FFFFFF" stroke="#CBD5E1"/><text x="622.0" y="118.0" class="group-title">infrastructure</text></g>
<g class="group"><rect x="882.0" y="96.0" width="240.0" height="140.0" rx="6" fill="#FFFFFF" stroke="#CBD5E1"/><text x="904.0" y="118.0" class="group-title">governance</text></g>
<g class="group"><rect x="1164.0" y="96.0" width="240.0" height="140.0" rx="6" fill="#FFFFFF" stroke="#CBD5E1"/><text x="1186.0" y="118.0" class="group-title">execution</text></g>
<g class="group"><rect x="1446.0" y="96.0" width="240.0" height="140.0" rx="6" fill="#FFFFFF" stroke="#CBD5E1"/><text x="1468.0" y="118.0" class="group-title">state</text></g>
<g class="edge" data-id="E-AgentHarness-Loop" data-evidence="S-011,X-002"><title>E-AgentHarness-Loop: S-011,X-002</title><path d="M 254.0 265.0 C 165.8 265.0, 146.2 349.0, 58.0 349.0" fill="none" stroke="#2E7D32" stroke-width="2" marker-end="url(#arrow-experimental_verified)"/><text x="156.0" y="302.0" class="edge-label" text-anchor="middle">direct loop</text></g>
<g class="edge" data-id="E-AgentSession-Loop" data-evidence="S-002,R-001,R-002"><title>E-AgentSession-Loop: S-002,R-001,R-002</title><path d="M 254.0 181.0 C 165.8 181.0, 146.2 349.0, 58.0 349.0" fill="none" stroke="#2E7D32" stroke-width="2" marker-end="url(#arrow-runtime_verified)"/><text x="156.0" y="260.0" class="edge-label" text-anchor="middle">prompt/continue</text></g>
<g class="edge" data-id="E-Compactor-Session" data-evidence="S-009,X-003"><title>E-Compactor-Session: S-009,X-003</title><path d="M 254.0 433.0 C 800.3 433.0, 921.7 181.0, 1468.0 181.0" fill="none" stroke="#2E7D32" stroke-width="2" marker-end="url(#arrow-experimental_verified)"/><text x="861.0" y="302.0" class="edge-label" text-anchor="middle">summary boundary</text></g>
<g class="edge" data-id="E-Context-Model" data-evidence="S-001,R-001"><title>E-Context-Model: S-001,R-001</title><path d="M 536.0 181.0 C 574.7 181.0, 583.3 181.0, 622.0 181.0" fill="none" stroke="#2E7D32" stroke-width="2" marker-end="url(#arrow-runtime_verified)"/><text x="579.0" y="176.0" class="edge-label" text-anchor="middle">system/messages/tools</text></g>
<g class="edge" data-id="E-Loop-Context" data-evidence="S-001,R-001"><title>E-Loop-Context: S-001,R-001</title><path d="M 254.0 349.0 C 292.7 349.0, 301.3 181.0, 340.0 181.0" fill="none" stroke="#2E7D32" stroke-width="2" marker-end="url(#arrow-runtime_verified)"/><text x="297.0" y="260.0" class="edge-label" text-anchor="middle">convert before request</text></g>
<g class="edge" data-id="E-Loop-Exit" data-evidence="S-001,R-001"><title>E-Loop-Exit: S-001,R-001</title><path d="M 254.0 349.0 C 165.8 349.0, 146.2 601.0, 58.0 601.0" fill="none" stroke="#2E7D32" stroke-width="2" marker-end="url(#arrow-runtime_verified)"/><text x="156.0" y="470.0" class="edge-label" text-anchor="middle">no tools/queues</text></g>
<g class="edge" data-id="E-Loop-Tool" data-evidence="S-001,R-002"><title>E-Loop-Tool: S-001,R-002</title><path d="M 254.0 349.0 C 673.4 349.0, 766.6 181.0, 1186.0 181.0" fill="none" stroke="#2E7D32" stroke-width="2" marker-end="url(#arrow-runtime_verified)"/><text x="720.0" y="260.0" class="edge-label" text-anchor="middle">dispatch</text></g>
<g class="edge" data-id="E-Model-Tool" data-evidence="R-002"><title>E-Model-Tool: R-002</title><path d="M 818.0 181.0 C 983.6 181.0, 1020.4 181.0, 1186.0 181.0" fill="none" stroke="#2E7D32" stroke-width="2" marker-end="url(#arrow-runtime_verified)"/><text x="1002.0" y="176.0" class="edge-label" text-anchor="middle">toolUse</text></g>
<g class="edge" data-id="E-Gate-Tool" data-evidence="S-003,S-017"><title>E-Gate-Tool: S-003,S-017</title><path d="M 1100.0 181.0 C 1138.7 181.0, 1147.3 181.0, 1186.0 181.0" fill="none" stroke="#64748B" stroke-width="2" stroke-dasharray="7 5" marker-end="url(#arrow-static_only)"/><text x="1143.0" y="176.0" class="edge-label" text-anchor="middle">allow/block</text></g>
<g class="edge" data-id="E-Retry-Agent" data-evidence="S-009,S-010,X-003"><title>E-Retry-Agent: S-009,S-010,X-003</title><path d="M 254.0 517.0 C 165.8 517.0, 146.2 181.0, 58.0 181.0" fill="none" stroke="#2E7D32" stroke-width="2" marker-end="url(#arrow-experimental_verified)"/><text x="156.0" y="344.0" class="edge-label" text-anchor="middle">bounded continue</text></g>
<g class="node" data-id="N-AgentSession" data-evidence="S-002,S-003,R-001,X-003"><title>N-AgentSession: S-002,S-003,R-001,X-003</title><rect x="58.0" y="148.0" width="196" height="66" rx="6" fill="#E8F5E9" stroke="#2E7D32" stroke-width="2"/><text x="72.0" y="175.0" class="node-name" fill="#14261A">Coding Agent AgentSession</text><text x="72.0" y="197.0" class="node-type" fill="#14261A">AgentLoop</text></g>
<g class="node" data-id="N-AgentHarness" data-evidence="D-003,S-011,X-002"><title>N-AgentHarness: D-003,S-011,X-002</title><rect x="58.0" y="232.0" width="196" height="66" rx="6" fill="#E8F5E9" stroke="#2E7D32" stroke-width="2"/><text x="72.0" y="259.0" class="node-name" fill="#14261A">New AgentHarness</text><text x="72.0" y="281.0" class="node-type" fill="#14261A">AgentLoop</text></g>
<g class="node" data-id="N-LowLoop" data-evidence="S-001,R-001,R-002,X-001"><title>N-LowLoop: S-001,R-001,R-002,X-001</title><rect x="58.0" y="316.0" width="196" height="66" rx="6" fill="#E8F5E9" stroke="#2E7D32" stroke-width="2"/><text x="72.0" y="343.0" class="node-name" fill="#14261A">runAgentLoop</text><text x="72.0" y="365.0" class="node-type" fill="#14261A">AgentLoop</text></g>
<g class="node" data-id="N-Compactor" data-evidence="S-009,X-003"><title>N-Compactor: S-009,X-003</title><rect x="58.0" y="400.0" width="196" height="66" rx="6" fill="#E8F5E9" stroke="#2E7D32" stroke-width="2"/><text x="72.0" y="427.0" class="node-name" fill="#14261A">Coding Agent compaction</text><text x="72.0" y="449.0" class="node-type" fill="#14261A">Compactor</text></g>
<g class="node" data-id="N-Context" data-evidence="S-001,S-002,S-004,R-001"><title>N-Context: S-001,S-002,S-004,R-001</title><rect x="340.0" y="148.0" width="196" height="66" rx="6" fill="#E8F5E9" stroke="#2E7D32" stroke-width="2"/><text x="354.0" y="175.0" class="node-name" fill="#14261A">Context assembly</text><text x="354.0" y="197.0" class="node-type" fill="#14261A">ContextBuilder</text></g>
<g class="node" data-id="N-Exit" data-evidence="S-001,R-001,R-002"><title>N-Exit: S-001,R-001,R-002</title><rect x="58.0" y="568.0" width="196" height="66" rx="6" fill="#E8F5E9" stroke="#2E7D32" stroke-width="2"/><text x="72.0" y="595.0" class="node-name" fill="#14261A">agent_end / agent_settled</text><text x="72.0" y="617.0" class="node-type" fill="#14261A">ExitCondition</text></g>
<g class="node" data-id="N-ModelCall" data-evidence="S-001,S-012,R-001,R-002"><title>N-ModelCall: S-001,S-012,R-001,R-002</title><rect x="622.0" y="148.0" width="196" height="66" rx="6" fill="#E8F5E9" stroke="#2E7D32" stroke-width="2"/><text x="636.0" y="175.0" class="node-name" fill="#14261A">Provider request</text><text x="636.0" y="197.0" class="node-type" fill="#14261A">ModelCall</text></g>
<g class="node" data-id="N-OptionalGate" data-evidence="D-004,S-017"><title>N-OptionalGate: D-004,S-017</title><rect x="904.0" y="148.0" width="196" height="66" rx="6" fill="#F8FAFC" stroke="#64748B" stroke-width="2"/><text x="918.0" y="175.0" class="node-name" fill="#1E293B">Optional extension gate</text><text x="918.0" y="197.0" class="node-type" fill="#1E293B">PermissionGate</text></g>
<g class="node" data-id="N-Retry" data-evidence="S-009,S-010,X-003"><title>N-Retry: S-009,S-010,X-003</title><rect x="58.0" y="484.0" width="196" height="66" rx="6" fill="#E8F5E9" stroke="#2E7D32" stroke-width="2"/><text x="72.0" y="511.0" class="node-name" fill="#14261A">Retry / overflow recovery</text><text x="72.0" y="533.0" class="node-type" fill="#14261A">RecoveryPolicy</text></g>
<g class="node" data-id="N-Session" data-evidence="S-008,R-003,R-004"><title>N-Session: S-008,R-003,R-004</title><rect x="1468.0" y="148.0" width="196" height="66" rx="6" fill="#E8F5E9" stroke="#2E7D32" stroke-width="2"/><text x="1482.0" y="175.0" class="node-name" fill="#14261A">Live active session</text><text x="1482.0" y="197.0" class="node-type" fill="#14261A">Session</text></g>
<g class="node" data-id="N-ReadTool" data-evidence="R-002,S-003"><title>N-ReadTool: R-002,S-003</title><rect x="1186.0" y="148.0" width="196" height="66" rx="6" fill="#E8F5E9" stroke="#2E7D32" stroke-width="2"/><text x="1200.0" y="175.0" class="node-name" fill="#14261A">read tool</text><text x="1200.0" y="197.0" class="node-type" fill="#14261A">Tool</text></g>
<text x="36" y="692.0" class="legend-title">Evidence state</text>
<line x1="36.0" y1="712.0" x2="64.0" y2="712.0" stroke="#2E7D32" stroke-width="2"/><text x="72.0" y="716.0" class="legend-label">Observed</text>
<line x1="196.0" y1="712.0" x2="224.0" y2="712.0" stroke="#64748B" stroke-width="2" stroke-dasharray="7 5"/><text x="232.0" y="716.0" class="legend-label">Static only</text>
<line x1="356.0" y1="712.0" x2="384.0" y2="712.0" stroke="#B45309" stroke-width="2" stroke-dasharray="2 5"/><text x="392.0" y="716.0" class="legend-label">Inferred</text>
<line x1="516.0" y1="712.0" x2="544.0" y2="712.0" stroke="#B91C1C" stroke-width="2"/><text x="552.0" y="716.0" class="legend-label">Conflicted</text>
<line x1="676.0" y1="712.0" x2="704.0" y2="712.0" stroke="#64748B" stroke-width="2" stroke-dasharray="3 5"/><text x="712.0" y="716.0" class="legend-label">Unknown</text>
</svg>
